<?xml version="1.0" standalone="no"?>
<!DOCTYPE svg PUBLIC "-//W3C//DTD SVG 20010904//EN"
 "http://www.w3.org/TR/2001/REC-SVG-20010904/DTD/svg10.dtd">
<svg version="1.0" xmlns="http://www.w3.org/2000/svg"
 width="512.000000pt" height="512.000000pt" viewBox="0 0 512.000000 512.000000"
 preserveAspectRatio="xMidYMid meet">

<g transform="translate(0.000000,512.000000) scale(0.100000,-0.100000)"
fill="#000000" stroke="none">
<path d="M2357 5105 c-145 -37 -257 -126 -321 -256 -43 -87 -56 -174 -56 -373
l0 -129 73 7 c172 17 407 80 539 147 35 17 96 54 136 82 80 55 192 170 192
197 0 33 -62 141 -109 189 -58 59 -116 97 -190 122 -75 27 -191 32 -264 14z"/>
<path d="M3010 2005 c-194 -89 -482 -168 -725 -200 -66 -9 -198 -18 -293 -22
l-173 -6 -112 -136 c-235 -285 -539 -564 -783 -718 l-41 -26 214 -361 c117
-198 217 -364 221 -368 9 -9 295 167 436 269 189 136 353 283 541 483 65 69
147 155 183 192 l66 68 115 -6 c466 -21 486 -22 545 -43 120 -42 229 -137 283
-247 17 -32 51 -135 78 -229 26 -93 48 -171 50 -173 1 -2 733 228 771 242 15
6 -170 587 -220 691 -94 200 -251 357 -449 451 -57 27 -587 187 -607 183 -3
-1 -48 -21 -100 -44z"/>
</g>
</svg>
